
int melody[] = {
  NOTE_E5, NOTE_E3, NOTE_B4, NOTE_C5, NOTE_D5, NOTE_E5, NOTE_D5, NOTE_C5, 
  NOTE_B4, NOTE_A4, NOTE_A3, NOTE_A4, NOTE_C5, NOTE_E5, NOTE_A3, NOTE_D5,
  NOTE_C5, NOTE_B4, NOTE_E4, NOTE_G4, NOTE_C5, NOTE_D5, NOTE_E3, NOTE_E5,
  NOTE_E3, NOTE_C5, NOTE_A3, NOTE_A4, NOTE_A3, NOTE_A4, NOTE_A3, NOTE_B2, 
  NOTE_C3, NOTE_D3, NOTE_D5, NOTE_F5, NOTE_A5, NOTE_C5, NOTE_C5, NOTE_G5, 
  NOTE_F5, NOTE_E5, NOTE_C3, 0, NOTE_C5, NOTE_E5, NOTE_A4, NOTE_G4, NOTE_D5,
  NOTE_C5, NOTE_B4, NOTE_E4, NOTE_B4, NOTE_C5, NOTE_D5, NOTE_G4, NOTE_E5, 
  NOTE_G4, NOTE_C5, NOTE_E4, NOTE_A4, NOTE_E3, NOTE_A4, 0, 
  NOTE_E5, NOTE_E3, NOTE_B4, NOTE_C5, NOTE_D5, NOTE_E5, NOTE_D5, NOTE_C5, 
  NOTE_B4, NOTE_A4, NOTE_A3, NOTE_A4, NOTE_C5, NOTE_E5, NOTE_A3, NOTE_D5,
  NOTE_C5, NOTE_B4, NOTE_E4, NOTE_G4, NOTE_C5, NOTE_D5, NOTE_E3, NOTE_E5,
  NOTE_E3, NOTE_C5, NOTE_A3, NOTE_A4, NOTE_A3, NOTE_A4, NOTE_A3, NOTE_B2, 
  NOTE_C3, NOTE_D3, NOTE_D5, NOTE_F5, NOTE_A5, NOTE_C5, NOTE_C5, NOTE_G5, 
  NOTE_F5, NOTE_E5, NOTE_C3, 0, NOTE_C5, NOTE_E5, NOTE_A4, NOTE_G4, NOTE_D5,
  NOTE_C5, NOTE_B4, NOTE_E4, NOTE_B4, NOTE_C5, NOTE_D5, NOTE_G4, NOTE_E5, 
  NOTE_G4, NOTE_C5, NOTE_E4, NOTE_A4, NOTE_E3, NOTE_A4, 0,
  NOTE_E4, NOTE_E3, NOTE_A2, NOTE_E3, NOTE_C4, NOTE_E3, NOTE_A2, NOTE_E3, 
  NOTE_D4, NOTE_E3, NOTE_GS2, NOTE_E3, NOTE_B3, NOTE_E3, NOTE_GS2, NOTE_E3,
  NOTE_C4, NOTE_E3, NOTE_A2, NOTE_E3, NOTE_A3, NOTE_E3, NOTE_A2, NOTE_E3, 
  NOTE_GS3, NOTE_E3, NOTE_GS2, NOTE_E3, NOTE_B3, NOTE_E3, NOTE_GS2, NOTE_E3, 
  NOTE_E4, NOTE_E3, NOTE_A2, NOTE_E3, NOTE_C4, NOTE_E3, NOTE_A2, NOTE_E3, 
  NOTE_D4, NOTE_E3, NOTE_GS2, NOTE_E3, NOTE_B3, NOTE_E3, NOTE_GS2, NOTE_E3,
  NOTE_C4, NOTE_E3, NOTE_E4, NOTE_E3, NOTE_A4, NOTE_E3, NOTE_A2, NOTE_E3, 
  NOTE_GS4, NOTE_E3, NOTE_GS2, NOTE_E3, NOTE_GS2, NOTE_E3, NOTE_GS2, NOTE_E3,
  NOTE_E5, NOTE_E3, NOTE_B4, NOTE_C5, NOTE_D5, NOTE_E5, NOTE_D5, NOTE_C5, 
  NOTE_B4, NOTE_A4, NOTE_A3, NOTE_A4, NOTE_C5, NOTE_E5, NOTE_A3, NOTE_D5,
  NOTE_C5, NOTE_B4, NOTE_E4, NOTE_G4, NOTE_C5, NOTE_D5, NOTE_E3, NOTE_E5,
  NOTE_E3, NOTE_C5, NOTE_A3, NOTE_A4, NOTE_A3, NOTE_A4, NOTE_A3, NOTE_B2, 
  NOTE_C3, NOTE_D3, NOTE_D5, NOTE_F5, NOTE_A5, NOTE_C5, NOTE_C5, NOTE_G5, 
  NOTE_F5, NOTE_E5, NOTE_C3, 0, NOTE_C5, NOTE_E5, NOTE_A4, NOTE_G4, NOTE_D5,
  NOTE_C5, NOTE_B4, NOTE_E4, NOTE_B4, NOTE_C5, NOTE_D5, NOTE_G4, NOTE_E5, 
  NOTE_G4, NOTE_C5, NOTE_E4, NOTE_A4, NOTE_E3, NOTE_A4, 0, 
  NOTE_E5, NOTE_E3, NOTE_B4, NOTE_C5, NOTE_D5, NOTE_E5, NOTE_D5, NOTE_C5, 
  NOTE_B4, NOTE_A4, NOTE_A3, NOTE_A4, NOTE_C5, NOTE_E5, NOTE_A3, NOTE_D5,
  NOTE_C5, NOTE_B4, NOTE_E4, NOTE_G4, NOTE_C5, NOTE_D5, NOTE_E3, NOTE_E5,
  NOTE_E3, NOTE_C5, NOTE_A3, NOTE_A4, NOTE_A3, NOTE_A4, NOTE_A3, NOTE_B2, 
  NOTE_C3, NOTE_D3, NOTE_D5, NOTE_F5, NOTE_A5, NOTE_C5, NOTE_C5, NOTE_G5, 
  NOTE_F5, NOTE_E5, NOTE_C3, 0, NOTE_C5, NOTE_E5, NOTE_A4, NOTE_G4, NOTE_D5,
  NOTE_C5, NOTE_B4, NOTE_E4, NOTE_B4, NOTE_C5, NOTE_D5, NOTE_G4, NOTE_E5, 
  NOTE_G4, NOTE_C5, NOTE_E4, NOTE_A4, NOTE_E3, NOTE_A4, 0,
  NOTE_E4, NOTE_E3, NOTE_A2, NOTE_E3, NOTE_C4, NOTE_E3, NOTE_A2, NOTE_E3, 
  NOTE_D4, NOTE_E3, NOTE_GS2, NOTE_E3, NOTE_B3, NOTE_E3, NOTE_GS2, NOTE_E3,
  NOTE_C4, NOTE_E3, NOTE_A2, NOTE_E3, NOTE_A3, NOTE_E3, NOTE_A2, NOTE_E3, 
  NOTE_GS3, NOTE_E3, NOTE_GS2, NOTE_E3, NOTE_B3, NOTE_E3, NOTE_GS2, NOTE_E3, 
  NOTE_E4, NOTE_E3, NOTE_A2, NOTE_E3, NOTE_C4, NOTE_E3, NOTE_A2, NOTE_E3, 
  NOTE_D4, NOTE_E3, NOTE_GS2, NOTE_E3, NOTE_B3, NOTE_E3, NOTE_GS2, NOTE_E3,
  NOTE_C4, NOTE_E3, NOTE_E4, NOTE_E3, NOTE_A4, NOTE_E3, NOTE_A2, NOTE_E3, 
  NOTE_GS4, NOTE_E3, NOTE_GS2, NOTE_E3, NOTE_GS2, NOTE_E3, NOTE_GS2, NOTE_E3,
};

// note durations: 4 = quarter note, 8 = eighth note, etc.:
int noteDurations[] = {
  8,8,8,8,8,16,16,8,8,8,8,8,8,8,8,8,8,8,8,8,8,8,8,8,8,8,8,8,8,8,8,8,8,
  8,4,8,8,16,16,8,8,8,8,8,8,8,16,16,8,8,8,8,8,8,8,8,8,8,8,8,8,8,4,4,
  8,8,8,8,8,16,16,8,8,8,8,8,8,8,8,8,8,8,8,8,8,8,8,8,8,8,8,8,8,8,8,8,8,
  8,4,8,8,16,16,8,8,8,8,8,8,8,16,16,8,8,8,8,8,8,8,8,8,8,8,8,8,8,4,4,
  8,8,8,8,8,8,8,8,8,8,8,8,8,8,8,8,8,8,8,8,8,8,8,8,8,8,8,8,8,8,8,8,
  8,8,8,8,8,8,8,8,8,8,8,8,8,8,8,8,8,8,8,8,8,8,8,8,8,8,8,8,8,8,8,8,
  8,8,8,8,8,16,16,8,8,8,8,8,8,8,8,8,8,8,8,8,8,8,8,8,8,8,8,8,8,8,8,8,8,
  8,4,8,8,16,16,8,8,8,8,8,8,8,16,16,8,8,8,8,8,8,8,8,8,8,8,8,8,8,4,4,
  8,8,8,8,8,16,16,8,8,8,8,8,8,8,8,8,8,8,8,8,8,8,8,8,8,8,8,8,8,8,8,8,8,
  8,4,8,8,16,16,8,8,8,8,8,8,8,16,16,8,8,8,8,8,8,8,8,8,8,8,8,8,8,4,4,
  8,8,8,8,8,8,8,8,8,8,8,8,8,8,8,8,8,8,8,8,8,8,8,8,8,8,8,8,8,8,8,8,
  8,8,8,8,8,8,8,8,8,8,8,8,8,8,8,8,8,8,8,8,8,8,8,8,8,8,8,8,8,8,8,8,
};

void playSong(synth* audio) {
  for (int thisNote = 0; thisNote < 384; thisNote++) {

    /*
    to calculate the note duration, take one second divided by the note type.
     e.g. quarter note = 1000 / 4, eighth note = 1000/8, etc.
     */
    int noteDuration = 800/noteDurations[thisNote];

    if(melody[thisNote]<=NOTE_E4)
      audio->mTrigger(1,melody[thisNote]+32);
    else
      audio->mTrigger(0,melody[thisNote]+32);
    delay(noteDuration);

    // to distinguish the notes, set a minimum time between them.
    // the note's duration + 30% seems to work well:
    int pauseBetweenNotes = noteDuration * 1.30;
    delay(pauseBetweenNotes);
    // stop the tone playing:
  }
}